HIERARCHY
ROOT Hips
{
  OFFSET 40.9192 92.6879 18.85
  CHANNELS 6 Xposition Yposition Zposition Zrotation Xrotation Yrotation
  JOINT LeftUpLeg
  {
    OFFSET 8.64259 1.95398 -2.38835
    CHANNELS 3 Zrotation Xrotation Yrotation
    JOINT LeftLeg
    {
      OFFSET 43.7702 0 0
      CHANNELS 3 Zrotation Xrotation Yrotation
      JOINT LeftFoot
      {
        OFFSET 40.6238 0 0
        CHANNELS 3 Zrotation Xrotation Yrotation
        JOINT LeftToeBase
        {
          OFFSET 12.7242 0 0
          CHANNELS 3 Zrotation Xrotation Yrotation
          End Site
          {
            OFFSET 0 0 0
          }
        }
      }
    }
  }
  JOINT RightUpLeg
  {
    OFFSET -8.2249 1.95398 -2.59336
    CHANNELS 3 Zrotation Xrotation Yrotation
    JOINT RightLeg
    {
      OFFSET 43.5653 0 0
      CHANNELS 3 Zrotation Xrotation Yrotation
      JOINT RightFoot
      {
        OFFSET 40.6238 0 0
        CHANNELS 3 Zrotation Xrotation Yrotation
        JOINT RightToeBase
        {
          OFFSET 12.7242 0 0
          CHANNELS 3 Zrotation Xrotation Yrotation
          End Site
          {
            OFFSET 0 0 0
          }
        }
      }
    }
  }
  JOINT Spine
  {
    OFFSET 0.165834 0.87714 6.61349
    CHANNELS 3 Zrotation Xrotation Yrotation
    JOINT Spine1
    {
      OFFSET 7.38963 1.71661e-005 0
      CHANNELS 3 Zrotation Xrotation Yrotation
      JOINT Spine2
      {
        OFFSET 11.9445 1.14441e-005 0
        CHANNELS 3 Zrotation Xrotation Yrotation
        JOINT Spine3
        {
          OFFSET 14.7254 4.19617e-005 0
          CHANNELS 3 Zrotation Xrotation Yrotation
          JOINT Spine4
          {
            OFFSET 10.9679 0 0
            CHANNELS 3 Zrotation Xrotation Yrotation
            JOINT RightShoulder
            {
              OFFSET 2.46616 -1.6653 3.69651
              CHANNELS 3 Zrotation Xrotation Yrotation
              JOINT RightArm
              {
                OFFSET 13.0012 0 0
                CHANNELS 3 Zrotation Xrotation Yrotation
                JOINT RightForeArm
                {
                  OFFSET 28.7848 1.52588e-005 0
                  CHANNELS 3 Zrotation Xrotation Yrotation
                  JOINT RightHand
                  {
                    OFFSET 26.5688 1.52588e-005 0
                    CHANNELS 3 Zrotation Xrotation Yrotation
                    End Site
                    {
                      OFFSET 0 0 0
                    }
                  }
                }
              }
            }
            JOINT LeftShoulder
            {
              OFFSET 2.38034 -1.29275 -3.7523
              CHANNELS 3 Zrotation Xrotation Yrotation
              JOINT LeftArm
              {
                OFFSET 16.3182 6.10351e-005 0
                CHANNELS 3 Zrotation Xrotation Yrotation
                JOINT LeftForeArm
                {
                  OFFSET 27.0901 0 0
                  CHANNELS 3 Zrotation Xrotation Yrotation
                  JOINT LeftHand
                  {
                    OFFSET 24.5451 1.52588e-005 0
                    CHANNELS 3 Zrotation Xrotation Yrotation
                    End Site
                    {
                      OFFSET 0 0 0
                    }
                  }
                }
              }
            }
            JOINT Neck
            {
              OFFSET 5.0226 -0.0266342 0
              CHANNELS 3 Zrotation Xrotation Yrotation
              JOINT Head
              {
                OFFSET 6.69363 2.86102e-005 0
                CHANNELS 3 Zrotation Xrotation Yrotation
                End Site
                {
                  OFFSET 0 0 0
                }
              }
            }
          }
        }
      }
    }
  }
}
MOTION
Frames:	15
Frame Time:	0.0416667
290.002 86.5893 203.017 89.5763 -57.4518 84.3275 -159.146 39.4341 90.6589 -52.6873 73.0734 -15.7944 71.6901 13.3919 46.196 18.1114 -16.4272 25.2579 -171.218 23.8712 88.2584 -76.5766 4.79747 -11.6835 73.9698 -2.58814 -3.0786 59.852 0.292368 -6.0755 0.267097 8.08639 -89.6112 10.6984 0.711048 0.707897 -0.972507 0.741502 0.675909 -23.5069 0.46545 0.888864 -3.49426 0.465413 0.888847 93.2274 -44.6257 -96.8489 24.9478 -10.2495 15.3773 -14.8163 -14.571 -67.5668 -15.997 -0.864841 0.798615 -93.2885 -46.813 72.9535 -39.3068 10.3098 29.8898 -12.8572 -8.8937 -56.234 37.013 0.797874 -1.88805 12.1265 0.317038 1.63344 -0.70053 0.0737258 3.22472 
283.898 87.3752 199.153 89.0013 -56.5483 83.0935 -158.218 36.1659 88.5835 -63.1928 72.0558 -14.1292 70.3915 19.8222 50.6303 16.9419 -18.3768 26.3973 -172.576 28.3829 88.6924 -74.3194 9.39683 -9.97105 79.3121 -6.21706 -4.01411 46.8661 0.881816 -1.125 0.106455 8.13816 -89.5322 10.5952 0.427213 0.891383 -1.07591 0.466012 0.871711 -23.6088 0.139558 0.978555 -3.59612 0.139549 0.978544 92.6936 -45.5926 -97.5318 25.5257 -9.27535 15.7966 -13.8136 -19.5054 -59.0172 -13.0768 -1.02871 2.82808 -94.1059 -47.7729 71.9897 -34.0677 9.95538 23.9769 -13.1103 -9.28974 -55.4609 39.7002 1.04167 -1.42409 11.5164 0.895472 1.45477 0.420191 0.745285 3.80392 
279.27 88.5274 196.171 86.5896 -55.3942 82.1278 -158.186 32.5942 87.5302 -74.0611 65.9102 -10.3053 68.2201 24.8065 53.558 4.1848 -30.1854 19.489 -171.358 31.7692 90.104 -71.434 7.8165 -9.26774 78.41 -8.34807 -3.61676 40.2157 0.341725 -5.54631 -0.00262647 8.10643 -89.7128 10.6606 0.126996 0.559411 -1.01051 0.151475 0.553273 -23.5446 -0.047004 0.57171 -3.53199 -0.0470045 0.571719 93.143 -46.2677 -96.6703 25.4605 -9.56682 15.5011 -12.6779 -26.2149 -50.6455 -8.53169 -0.999553 4.48946 -96.4355 -50.1859 69.2498 -27.2707 8.85669 17.6779 -11.4307 -8.22161 -55.8979 40.4142 1.12252 -1.27353 13.3648 1.63304 1.70114 0.40038 1.41072 4.39843 
275.039 90.5148 193.3 86.8434 -54.7583 83.4414 -157.774 27.8387 86.8943 -82.3474 47.5094 -4.98305 71.0819 29.6899 44.1271 -28.8396 -48.2203 -1.36668 -171.36 32.4185 91.3351 -65.7288 5.76293 -8.2881 71.627 -7.20749 -3.62359 42.5105 0.271451 -7.45429 -0.19848 8.16541 -89.8107 10.5435 -0.308313 0.403666 -1.12745 -0.290244 0.416835 -23.6626 -0.415379 0.292346 -3.64997 -0.415384 0.292343 92.5918 -47.0105 -97.4123 25.7445 -9.58289 15.9892 -8.84246 -30.6711 -43.5466 -0.591472 -0.616569 7.2796 -97.5337 -50.7614 67.8404 -22.6083 6.57158 13.3929 -9.96113 -7.04388 -59.4905 40.2496 0.948357 -1.72006 14.6324 2.88871 1.12668 -0.484661 2.70594 4.05023 
270.56 92.6082 190.331 88.1101 -54.6895 84.9688 -156.841 22.0291 88.5828 -82.8959 20.2053 -2.03926 89.607 29.2105 6.50839 -53.4336 -58.8224 -14.1508 -170.86 32.5267 91.8835 -59.7462 3.30027 -7.67131 67.5436 -7.3002 -3.96012 39.8882 0.300696 -7.77153 -0.388618 8.23173 -89.8141 10.4117 -0.688882 0.429724 -1.25916 -0.669316 0.459639 -23.7956 -0.786194 0.202808 -3.78295 -0.786192 0.202811 92.0103 -47.5367 -98.2315 26.4378 -9.53518 17.9828 -10.5022 -36.1478 -41.7987 4.97448 -0.39203 5.79538 -97.3461 -49.8271 67.8066 -21.3654 3.0195 11.2929 -8.81102 -5.68498 -67.568 36.8197 1.60877 0.400851 12.6479 3.87492 0.961013 1.80283 3.84864 4.69271 
266.496 93.203 187.282 86.1207 -55.4887 83.1043 -158 16.4794 89.2971 -76.8239 13.2121 -2.21621 99.7043 28.1962 -9.02328 -76.4199 -66.0909 -27.4667 -170.164 35.484 91.5319 -56.6908 -0.460671 -7.91386 62.7699 -5.11258 -2.98804 40.6014 0.199655 -9.99495 -0.556488 8.16711 -89.6369 10.5424 -0.941568 0.806108 -1.12848 -0.905152 0.846761 -23.6654 -1.1403 0.485851 -3.6528 -1.1403 0.485843 92.059 -48.7735 -97.9032 26.7133 -10.9736 20.8726 -10.5515 -36.0262 -43.3801 -2.48843 -0.772679 4.4609 -95.4715 -48.8062 70.2469 -20.5977 -0.688826 11.2006 -2.21664 -4.52197 -82.2128 35.7242 0.0522776 -3.96583 13.3656 5.08064 -0.222414 1.64378 5.31829 5.38883 
262.134 93.4194 183.047 84.6246 -53.9751 83.2029 -160.56 14.018 90.1994 -69.1882 19.8927 -2.74585 96.559 30.5687 -1.62934 -73.0508 -72.73 -19.4344 -173.392 38.8669 92.5433 -52.3242 -0.815759 -6.86948 59.3591 -2.59995 -1.49801 37.1125 0.364778 -7.72522 -0.743919 8.1899 -89.7187 10.4989 -1.35262 0.679012 -1.17155 -1.32141 0.737881 -23.7121 -1.49415 0.24102 -3.6995 -1.49415 0.24102 91.8189 -49.3582 -98.1602 28.0215 -12.8959 24.3227 -5.99213 -28.401 -44.7881 -6.31287 -0.756425 2.82746 -96.0373 -48.2862 69.2395 -19.1649 -1.43992 11.3372 0.00567005 -2.98463 -93.2559 37.5674 1.13629 -0.962043 12.3312 5.62016 -0.254627 3.52224 5.95045 5.49003 
257.583 95.1728 178.461 81.893 -55.4148 81.6432 -161.107 11.3912 90.211 -56.9353 21.5743 -4.00909 91.4931 28.1569 1.23771 -1.29721 -54.5654 41.0823 -175.306 39.2555 93.3067 -41.5823 -6.17742 -6.73449 55.3382 -0.169933 0.104923 27.2703 0.314078 -5.37285 -0.599148 8.27495 -89.6369 10.3284 -1.02747 0.811073 -1.34245 -0.990768 0.855502 -23.8801 -1.22373 0.464753 -3.86743 -1.22373 0.464758 91.6079 -49.5848 -98.44 29.5367 -12.5276 23.5358 -4.87921 -24.165 -45.076 -8.03511 -0.558066 -0.222645 -95.1331 -46.894 70.1602 -18.8977 -1.18059 10.4874 5.77724 -3.24517 -103.54 31.1338 0.923034 -1.05413 12.1012 6.03684 -0.904864 4.68109 6.5597 5.60428 
253.794 98.0312 174.077 77.4957 -58.8102 78.6992 -165.105 9.71471 88.4586 -43.5351 13.5196 -4.85549 79.8953 18.9433 1.98052 21.8782 -12.452 27.5667 -176.541 35.9356 93.9104 -26.8195 -19.15 -6.83316 49.2808 2.92046 2.63213 25.4518 0.524411 -7.38768 -0.211287 8.34636 -89.5641 10.1812 -0.222031 0.884359 -1.49 -0.18291 0.893283 -24.0233 -0.47756 0.776748 -4.0107 -0.477553 0.776762 91.8031 -50.1239 -98.0307 28.9159 -13.0193 20.4315 -4.36575 -21.6203 -46.7207 -11.0515 -0.460537 -1.60322 -93.18 -46.5767 73.0526 -18.6058 2.41098 8.62442 8.74724 -5.24716 -105.413 28.2937 0.406666 -2.55671 14.8358 6.25876 -1.53019 3.3583 6.87731 5.74429 
250.146 99.9194 169.87 73.0068 -59.854 76.4434 -171.008 12.4461 87.6234 -36.6515 9.0907 -2.99824 66.0285 7.07538 2.42804 42.3954 11.848 11.4388 -176.158 33.9208 93.8704 -23.8221 -25.3128 -7.11558 55.6154 0.726861 0.762749 33.9391 0.432214 -8.73198 0.041319 8.23534 -89.5611 10.4014 0.28344 0.847118 -1.26981 0.320464 0.833815 -23.8028 0.0157523 0.893137 -3.79014 0.0157571 0.893139 91.1795 -50.5591 -98.8967 28.4424 -14.6842 19.4879 -4.25016 -18.5033 -53.5204 -14.1011 -0.657139 -0.267275 -91.7064 -44.8124 74.8559 -20.255 6.82605 8.07748 7.99337 -5.32451 -102.346 30.5976 0.398916 -2.61866 13.3531 5.92857 -2.8827 5.92383 7.07422 6.79626 
245.738 100.068 165.668 72.9905 -59.9637 76.8625 -171.799 15.8691 88.277 -36.1346 8.74678 -2.41543 62.5592 3.91722 1.88106 48.6916 16.7003 6.25127 -175.31 33.4452 92.9739 -35.0731 -15.2665 -7.18198 63.627 -2.65028 -1.49314 37.6349 0.320736 -9.46608 0.179296 8.16411 -89.5664 10.543 0.556334 0.81202 -1.12808 0.591526 0.786753 -23.6615 0.286577 0.941673 -3.64886 0.286578 0.941672 91.0956 -49.8235 -99.1804 28.7094 -14.7752 17.5752 -4.50639 -16.0381 -57.131 -16.6525 -0.66634 -0.673302 -92.3809 -44.8092 73.7956 -21.588 9.59332 9.72629 8.65118 -4.94503 -95.8483 28.9355 1.05936 -0.201739 12.761 6.07401 -1.91472 4.53386 6.81599 5.41195 
240.956 99.9016 161.342 76.4089 -59.3001 79.841 -170.639 19.4486 89.3725 -38.2528 9.28184 -2.95459 64.6728 5.25982 1.9336 41.895 10.8814 6.92272 -176.717 30.8854 91.7614 -48.2878 -4.96603 -5.81747 66.6222 -4.25782 -2.36282 37.1586 0.337509 -9.09711 0.247302 8.1579 -89.571 10.5551 0.689743 0.790738 -1.11592 0.723864 0.759607 -23.6498 0.420206 0.961457 -3.63716 0.4202 0.961462 92.6456 -48.8449 -96.9731 28.8146 -15.8321 13.9929 -3.90901 -14.2263 -59.8564 -20.0354 -0.602933 -1.53789 -92.958 -45.3031 73.0312 -23.4958 11.6215 12.294 8.76398 -3.51467 -87.0158 30.4079 0.133169 -3.61729 12.151 5.9252 -0.804947 3.38998 6.23314 3.75959 
236.269 98.5815 157.137 79.723 -58.3678 82.4544 -170.735 24.3671 90.2621 -42.4547 14.1393 -2.6902 61.8449 3.08177 3.64025 44.5348 12.8918 4.61377 -177.994 27.6561 90.1306 -61.4444 -1.46776 -5.13546 66.3784 -4.76791 -2.67775 41.4451 0.219868 -8.91198 0.24738 8.15726 -89.5176 10.5557 0.714377 0.894691 -1.11532 0.753062 0.862381 -23.6487 0.412473 1.06801 -3.63602 0.412482 1.06801 92.0665 -48.4928 -97.9483 28.4143 -15.0387 11.1496 -5.97403 -13.83 -63.3731 -21.3556 -0.704612 -1.13922 -92.7347 -45.5549 73.4514 -26.1562 11.6292 14.9274 8.09967 -1.08845 -78.0096 31.2557 0.556167 -2.23005 11.3214 5.72049 -0.521961 3.84384 5.87536 2.26591 
232.103 96.9082 153.319 83.4271 -58.4778 85.253 -171.044 27.5484 90.9047 -44.992 17.5013 -2.48942 60.7671 2.20395 4.79732 43.7536 12.4398 6.34833 -178.166 22.2234 88.195 -70.4872 -2.65882 -5.63329 64.7621 -4.52417 -2.62136 41.0444 0.309421 -7.14696 0.559513 8.27401 -89.5095 10.3206 1.33918 0.8578 -1.34986 1.37565 0.798014 -23.8864 1.01948 1.22062 -3.87372 1.01949 1.22062 92.0354 -47.2218 -98.264 28.1045 -14.6428 8.88672 -7.5804 -11.8627 -68.2353 -24.2251 -0.651763 -1.67414 -93.3582 -46.0286 72.6216 -28.9063 13.3258 16.1642 -0.571323 -1.79596 -66.2722 34.2868 1.8858 1.60499 14.8227 5.48796 -0.928793 -0.321298 5.70861 3.32806 
228.358 95.5111 149.633 87.608 -58.1106 88.3449 -171.719 28.3817 90.7732 -44.6367 18.15 -2.10804 60.881 2.47986 6.21743 42.0022 10.7507 4.48667 -178.183 14.7465 85.9075 -73.7003 -4.19281 -6.68298 60.1291 -2.949 -1.83503 42.2358 0.404148 -5.00237 0.798775 8.29434 -89.6773 10.2815 1.73895 0.49201 -1.38839 1.75893 0.414965 -23.9302 1.51068 0.991986 -3.91756 1.51067 0.991972 92.3621 -40.8053 -99.1309 31.4968 -15.647 7.82348 -11.5086 -10.1373 -74.4214 -25.2908 -0.328232 -3.16753 -95.0346 -47.8529 70.6069 -32.2339 14.9434 20.59 -0.749505 0.351429 -56.8896 36.6323 1.95921 1.42265 13.3191 4.59996 3.78756 -0.355186 3.60939 -0.945261 
